<svg
          className="w-8 h-8"
          viewBox="0 0 24 24"
          fill="none"
          xmlns="http://www.w3.org/2000/svg"
        >
          {/* Cart icon in black */}
          <path
            d="M7.5 21C8.32843 21 9 20.3284 9 19.5C9 18.6716 8.32843 18 7.5 18C6.67157 18 6 18.6716 6 19.5C6 20.3284 6.67157 21 7.5 21Z"
            fill="#232323"
          />
          <path
            d="M16.5 21C17.3284 21 18 20.3284 18 19.5C18 18.6716 17.3284 18 16.5 18C15.6716 18 15 18.6716 15 19.5C15 20.3284 15.6716 21 16.5 21Z"
            fill="#232323"
          />
          <path
            d="M3.5 4H5.5L6.5 6M6.5 6L9 14H17L20 6H6.5Z"
            stroke="#232323"
            strokeWidth="2"
            strokeLinecap="round"
            strokeLinejoin="round"
          />
          <path
            d="M9 14L8 16H19"
            stroke="#232323"
            strokeWidth="2"
            strokeLinecap="round"
            strokeLinejoin="round"
          />
        </svg>